<?xml version="1.0" standalone="no"?>
<!DOCTYPE svg PUBLIC "-//W3C//DTD SVG 20010904//EN"
 "http://www.w3.org/TR/2001/REC-SVG-20010904/DTD/svg10.dtd">
<svg version="1.0" xmlns="http://www.w3.org/2000/svg"
 width="1280.000000pt" height="1021.000000pt" viewBox="0 0 1280.000000 1021.000000"
 preserveAspectRatio="xMidYMid meet">
<metadata>
Created by potrace 1.16, written by Peter Selinger 2001-2019
</metadata>
<g transform="translate(0.000000,1021.000000) scale(0.100000,-0.100000)"
 stroke="none">
<path d="M8990 8374 c-129 -19 -397 -57 -595 -84 -198 -28 -405 -57 -460 -65
-55 -8 -215 -31 -355 -50 -227 -32 -831 -116 -1680 -235 -397 -56 -367 -49
-294 -69 34 -10 82 -30 109 -45 l47 -28 222 31 c121 18 266 38 321 46 55 8
359 51 675 95 316 44 683 96 815 115 132 19 407 57 610 86 204 28 485 68 625
88 l255 36 3 58 3 57 -33 -1 c-18 -1 -139 -16 -268 -35z"/>
<path d="M9160 8104 c-52 -8 -196 -28 -320 -44 -219 -28 -309 -40 -855 -114
-143 -19 -330 -44 -415 -55 -85 -11 -238 -31 -340 -45 -102 -14 -340 -46 -530
-71 -190 -25 -408 -54 -485 -65 -77 -10 -184 -24 -237 -31 l-98 -12 0 -89 c0
-48 3 -88 6 -88 3 0 223 29 487 65 684 93 1134 154 1262 171 61 7 139 18 175
24 36 5 169 23 295 40 127 17 325 44 440 60 116 16 316 43 445 60 129 17 250
33 268 36 l32 6 0 84 c0 74 -2 84 -17 83 -10 -1 -61 -8 -113 -15z"/>
<path d="M5180 7839 c-102 -15 -381 -55 -620 -88 -239 -34 -577 -81 -750 -105
-173 -25 -420 -59 -547 -77 l-233 -32 0 -54 0 -54 33 6 c17 3 149 21 292 40
264 35 605 81 1335 181 223 30 427 58 454 61 39 5 57 14 92 49 24 23 67 53 94
67 28 14 47 27 43 29 -4 2 -91 -8 -193 -23z"/>
<path d="M5415 7727 c-65 -22 -99 -43 -139 -88 -56 -62 -80 -121 -80 -204 -1
-59 3 -77 26 -116 52 -89 152 -149 248 -149 151 0 290 149 291 311 1 73 -7 98
-48 154 -60 82 -198 125 -298 92z"/>
<path d="M4975 7534 c-49 -7 -290 -41 -535 -74 -488 -67 -920 -126 -1217 -167
l-193 -26 0 -89 c0 -48 3 -88 6 -88 4 0 50 7 103 15 53 8 260 37 461 65 201
28 410 57 465 65 55 8 296 42 535 76 239 33 445 63 458 66 21 5 22 10 22 89 0
46 -3 83 -7 83 -5 -1 -48 -7 -98 -15z"/>
<path d="M8165 7443 c-229 -28 -367 -64 -452 -119 -91 -58 -88 -46 -85 -384 1
-162 5 -303 8 -312 9 -30 42 -31 90 -4 144 80 317 88 461 20 67 -32 108 -71
133 -127 37 -80 43 -77 -155 -102 -66 -8 -248 -33 -405 -55 -157 -22 -383 -52
-503 -67 -243 -31 -237 -32 -237 38 0 51 -27 72 -93 72 -29 0 -76 -5 -103 -11
-67 -16 -379 -44 -407 -37 -12 3 -31 -1 -41 -8 -19 -14 -19 -19 -7 -68 43
-182 53 -277 58 -519 5 -224 3 -253 -16 -332 -26 -112 -58 -173 -116 -227 -54
-50 -122 -82 -222 -105 -91 -20 -180 -20 -349 0 -74 9 -141 14 -149 10 -13 -4
-15 -35 -14 -198 1 -254 9 -346 33 -363 10 -8 59 -24 110 -37 130 -32 348 -32
495 1 382 84 661 296 793 604 58 134 78 233 85 430 4 118 9 167 18 167 6 0 88
11 181 25 908 136 1506 219 1803 251 64 7 74 12 114 65 15 19 17 36 13 84 -3
33 -8 140 -12 238 l-7 178 -28 15 c-22 11 -34 12 -49 4 -28 -15 -81 -15 -108
-1 -36 19 -80 88 -92 144 -5 29 -14 115 -19 192 -10 159 -28 218 -93 316 -71
106 -178 181 -303 214 -55 14 -244 19 -330 8z"/>
<path d="M5480 7080 c-342 -58 -567 -270 -675 -635 -53 -175 -45 -337 21 -437
13 -21 24 -40 24 -42 0 -3 -26 -7 -57 -11 -113 -13 -369 -46 -431 -56 -35 -5
-67 -7 -71 -5 -4 3 -11 67 -14 143 -9 185 -29 289 -77 389 -47 97 -123 172
-228 227 -157 81 -286 103 -557 93 -232 -8 -332 -19 -353 -39 -13 -14 -15 -66
-16 -376 -1 -330 0 -362 16 -367 9 -2 58 12 110 32 75 29 107 36 163 37 85 0
151 -26 184 -72 22 -30 51 -154 39 -166 -3 -3 -92 -17 -199 -30 -222 -28 -299
-41 -312 -54 -15 -15 -2 -448 15 -501 17 -54 -3 -53 283 -11 116 17 379 53
585 81 206 28 440 59 520 70 80 11 253 33 385 50 132 17 323 41 425 55 102 13
304 38 450 54 146 17 282 33 304 36 62 9 96 32 118 82 19 42 20 61 16 252 -3
125 -9 217 -17 235 -10 25 -15 28 -43 22 -96 -19 -276 -48 -380 -61 -152 -19
-207 -9 -238 39 -55 89 1 179 148 238 77 30 269 33 350 4 37 -12 57 -15 64 -8
7 7 7 56 -1 155 -6 80 -11 233 -11 340 0 144 -3 197 -12 205 -41 33 -396 54
-528 32z"/>
<path d="M8796 5824 c-126 -39 -216 -163 -216 -298 0 -66 30 -125 91 -180 120
-108 279 -100 387 18 57 62 84 125 90 208 4 59 1 75 -22 122 -31 64 -87 110
-160 131 -61 18 -107 18 -170 -1z"/>
<path d="M8173 5740 c-153 -61 -236 -263 -160 -392 102 -175 316 -204 447 -62
141 153 120 365 -44 451 -50 26 -179 28 -243 3z"/>
<path d="M7580 5663 c-118 -41 -199 -146 -208 -273 -4 -57 -1 -73 21 -116 31
-61 83 -109 155 -142 100 -46 217 -18 298 70 57 62 86 127 92 209 4 60 1 75
-22 123 -58 119 -204 175 -336 129z"/>
<path d="M5385 5084 c-5 -2 -131 -19 -280 -39 -148 -20 -385 -51 -525 -71
-336 -45 -573 -78 -805 -109 -104 -14 -302 -41 -438 -60 -136 -19 -261 -35
-277 -35 l-30 0 0 -120 c0 -113 1 -120 20 -120 11 0 129 15 263 34 133 19 310
43 392 55 213 29 1196 166 1522 212 l162 23 6 81 c8 94 4 153 -10 149z"/>
<path d="M9050 4613 c-185 -21 -1318 -161 -1440 -178 -58 -8 -294 -40 -525
-70 -396 -53 -977 -135 -1345 -190 -91 -14 -284 -43 -430 -65 -146 -21 -389
-58 -540 -80 -151 -23 -378 -57 -505 -75 -126 -19 -320 -48 -430 -64 -284 -42
-448 -67 -615 -91 -214 -31 -190 -13 -190 -146 l0 -114 124 0 c205 0 359 -35
516 -117 83 -43 146 -92 175 -137 8 -11 19 -52 25 -91 17 -113 20 -124 47
-156 35 -41 69 -53 104 -38 31 12 42 37 59 139 32 187 91 301 197 381 155 117
369 121 496 9 89 -78 136 -183 158 -354 21 -164 -12 -342 -81 -432 -73 -95
-82 -113 -76 -141 4 -17 44 -64 96 -115 121 -118 126 -118 249 0 112 107 116
123 45 204 -95 106 -129 229 -121 438 9 231 57 358 185 488 86 87 165 133 259
152 179 38 380 -72 428 -232 9 -29 20 -116 25 -193 5 -77 14 -162 20 -190 6
-27 12 -86 13 -130 1 -99 -22 -153 -88 -205 -46 -36 -67 -73 -56 -101 8 -21
201 -204 224 -212 42 -16 136 50 219 153 74 92 71 120 -22 225 -38 42 -74 93
-81 112 -14 44 -6 404 11 478 20 82 67 171 127 235 105 114 315 188 460 161
87 -16 134 -41 180 -96 76 -92 113 -227 113 -420 0 -196 -26 -291 -101 -372
l-40 -44 23 -41 c36 -64 134 -165 173 -178 43 -14 91 9 151 72 104 110 110
132 54 203 -16 20 -34 54 -40 74 -45 155 -60 535 -26 646 42 140 133 258 238
309 58 28 183 56 254 56 59 0 129 -25 177 -63 51 -41 110 -164 133 -277 22
-107 43 -143 100 -170 58 -29 109 -22 145 18 22 25 27 41 33 117 13 170 58
282 153 386 171 185 389 268 758 292 l40 2 3 123 3 122 -58 -1 c-32 -1 -114
-8 -183 -16z m-653 -415 c-103 -104 -154 -188 -183 -302 l-17 -69 -26 74 c-48
136 -137 239 -245 283 -22 9 -37 18 -35 20 2 2 94 16 204 31 110 15 238 33
285 40 47 7 90 13 97 14 7 0 -29 -41 -80 -91z m-957 -62 c0 -2 -21 -16 -46
-31 -93 -54 -189 -165 -233 -268 -11 -26 -22 -47 -24 -47 -2 0 -20 26 -41 59
-55 85 -140 150 -247 191 l-34 13 41 8 c23 4 142 21 265 38 123 17 235 32 249
34 37 6 70 8 70 3z m-1060 -144 c0 -4 -20 -18 -45 -31 -106 -56 -222 -192
-260 -306 -11 -30 -22 -55 -25 -55 -4 0 -17 23 -31 52 -36 77 -130 168 -216
209 -40 19 -72 37 -72 40 -1 7 21 11 394 64 272 39 255 37 255 27z m-1110
-157 c0 -2 -13 -11 -29 -19 -71 -37 -203 -182 -251 -275 l-22 -44 -20 31 c-27
43 -144 120 -256 168 -85 36 -110 53 -79 55 6 0 145 20 307 43 294 44 350 50
350 41z m-961 -129 c-2 -2 -31 -25 -64 -51 -87 -69 -229 -215 -244 -253 -7
-17 -17 -32 -21 -32 -5 0 -18 15 -29 34 -29 46 -100 110 -153 137 -23 13 -76
33 -117 45 -52 15 -69 23 -55 27 10 4 150 24 309 47 160 22 295 42 300 44 13
6 80 7 74 2z"/>
</g>
</svg>
