<svg id="SvgjsSvg1001" width="288" height="288" xmlns="http://www.w3.org/2000/svg" version="1.1" xmlns:xlink="http://www.w3.org/1999/xlink" xmlns:svgjs="http://svgjs.com/svgjs"><defs id="SvgjsDefs1002"></defs><g id="SvgjsG1008" transform="matrix(1,0,0,1,0,0)"><svg xmlns="http://www.w3.org/2000/svg" width="288" height="288" enable-background="new 0 0 512 512" viewBox="0 0 512 512"><path d="M370.092,454.555H142.666c-12.546,0-22.753-11.462-22.753-25.55V217.811l-36.529,54.667
				c-4.737,7.101-11.886,11.175-19.611,11.175c-6.149,0.001-12.072-2.643-16.678-7.442l-26.593-27.515
				c-10.176-10.552-11.674-29.297-3.344-41.79c19.949-29.848,33.753-53.569,44.845-72.63c37.028-63.63,43.7-75.095,140.052-75.876
				c1.589,0.009,3.036,0.703,3.992,1.936c0.956,1.232,1.282,2.841,0.881,4.348c-1.144,4.308-1.724,8.739-1.724,13.171
				c0,28.249,23.005,51.23,51.283,51.23h2.165c28.266,0,51.261-22.981,51.261-51.23c0-4.491-0.572-8.922-1.701-13.17
				c-0.4-1.507-0.075-3.114,0.88-4.348c0.947-1.222,2.407-1.937,3.952-1.937c0.013,0,0.025,0,0.039,0
				c95.77,0.742,101.487,10.501,138.688,73.999c10.94,18.674,24.556,41.914,44.17,71.261c8.143,12.215,6.678,30.539-3.263,40.852
				l-25.893,26.84c-4.542,4.671-10.342,7.236-16.346,7.236c-7.567,0-14.572-3.98-19.22-10.921l-38.401-57.477v218.815
				C392.818,443.093,382.623,454.555,370.092,454.555z M124.913,196.328c0.483,0,0.971,0.069,1.451,0.215
				c2.107,0.64,3.548,2.583,3.548,4.785v227.677c0,8.574,5.721,15.55,12.753,15.55h227.426c7.018,0,12.727-6.976,12.727-15.55
				v-235.3c0-2.202,1.441-4.146,3.549-4.785c2.104-0.639,4.385,0.175,5.608,2.008l47.556,71.179c2.757,4.117,6.734,6.48,10.908,6.48
				c3.326,0,6.495-1.45,9.162-4.193l25.878-26.824c6.744-6.996,7.726-19.983,2.144-28.358c-19.775-29.588-33.474-52.97-44.48-71.757
				C407.735,77.017,403.292,69.431,319.2,68.458c0.474,3.09,0.713,6.231,0.713,9.396c0,33.763-27.481,61.23-61.261,61.23h-2.165
				c-33.792,0-61.283-27.468-61.283-61.23c0-3.142,0.244-6.282,0.727-9.391c-84.687,1.073-89.942,10.11-125.284,70.842
				c-11.162,19.181-25.053,43.052-45.171,73.153c-5.767,8.647-4.75,22.063,2.221,29.292l26.602,27.523
				c2.753,2.869,6.025,4.38,9.474,4.379c4.326,0,8.443-2.452,11.295-6.728l45.688-68.375
				C121.7,197.136,123.274,196.328,124.913,196.328z" fill="#868585" class="color000 svgShape"></path></svg></g></svg>